<svg xmlns="http://www.w3.org/2000/svg" xmlns:xlink="http://www.w3.org/1999/xlink" width="500" zoomAndPan="magnify" viewBox="0 0 375 374.999991" height="500" preserveAspectRatio="xMidYMid meet" version="1.0"><defs><g/><clipPath id="abcaa1926c"><path d="M 51.328125 205.847656 L 323.671875 205.847656 L 323.671875 217.234375 L 51.328125 217.234375 Z M 51.328125 205.847656 " clip-rule="nonzero"/></clipPath><clipPath id="7cc75bda00"><path d="M 51.328125 205.847656 L 53.792969 217.234375 L 323.671875 206.464844 L 323.515625 205.847656 Z M 51.328125 205.847656 " clip-rule="nonzero"/></clipPath></defs><g fill="#f2f2f2" fill-opacity="1"><g transform="translate(59.719311, 197.639855)"><g><path d="M 6.828125 -32.640625 C 5.628906 -32.640625 4.601562 -33.066406 3.75 -33.921875 C 2.894531 -34.785156 2.46875 -35.8125 2.46875 -37 C 2.46875 -38.195312 2.894531 -39.222656 3.75 -40.078125 C 4.601562 -40.941406 5.628906 -41.375 6.828125 -41.375 C 8.023438 -41.375 9.050781 -40.941406 9.90625 -40.078125 C 10.769531 -39.222656 11.203125 -38.195312 11.203125 -37 C 11.203125 -35.8125 10.769531 -34.785156 9.90625 -33.921875 C 9.050781 -33.066406 8.023438 -32.640625 6.828125 -32.640625 Z M 10.6875 -29.171875 L 10.6875 0 L 3.015625 0 L 3.015625 -29.171875 Z M 10.6875 -29.171875 "/></g></g></g><g fill="#f2f2f2" fill-opacity="1"><g transform="translate(71.920096, 197.639855)"><g><path d="M 3.53125 0 L 3.53125 -39.1875 L 33.8125 -39.1875 L 33.8125 -32.140625 L 11.640625 -32.140625 L 11.640625 -22.890625 L 26.375 -22.890625 L 26.375 -16.0625 L 11.640625 -16.0625 L 11.640625 0 Z M 3.53125 0 "/></g></g></g><g fill="#f2f2f2" fill-opacity="1"><g transform="translate(106.228525, 197.639855)"><g><path d="M 3.53125 0 L 3.53125 -39.1875 L 11.640625 -39.1875 L 11.640625 0 Z M 3.53125 0 "/></g></g></g><g fill="#f2f2f2" fill-opacity="1"><g transform="translate(119.99643, 197.639855)"><g><path d="M 3.53125 -39.1875 L 11.25 -39.1875 L 30.734375 -13.828125 L 30.734375 -39.1875 L 38.34375 -39.1875 L 38.34375 0 L 31.1875 0 L 11.203125 -26.203125 L 11.203125 0 L 3.53125 0 Z M 3.53125 -39.1875 "/></g></g></g><g fill="#f2f2f2" fill-opacity="1"><g transform="translate(160.461426, 197.639855)"><g><path d="M -0.21875 0 L 15.90625 -39.1875 L 25.3125 -39.1875 L 41.203125 0 L 32.421875 0 L 28.4375 -10.296875 L 12.265625 -10.296875 L 8.234375 0 Z M 14.78125 -16.796875 L 25.984375 -16.796875 L 20.4375 -31.234375 Z M 14.78125 -16.796875 "/></g></g></g><g fill="#f2f2f2" fill-opacity="1"><g transform="translate(199.974966, 197.639855)"><g><path d="M 3.53125 -39.1875 L 11.25 -39.1875 L 30.734375 -13.828125 L 30.734375 -39.1875 L 38.34375 -39.1875 L 38.34375 0 L 31.1875 0 L 11.203125 -26.203125 L 11.203125 0 L 3.53125 0 Z M 3.53125 -39.1875 "/></g></g></g><g fill="#f2f2f2" fill-opacity="1"><g transform="translate(240.439967, 197.639855)"><g><path d="M 23.125 -6.9375 C 25.175781 -6.9375 27.097656 -7.363281 28.890625 -8.21875 C 30.679688 -9.082031 32.265625 -10.316406 33.640625 -11.921875 L 38.96875 -6.65625 C 37.101562 -4.457031 34.722656 -2.703125 31.828125 -1.390625 C 28.929688 -0.0859375 25.953125 0.5625 22.890625 0.5625 C 19.941406 0.5625 17.191406 0.0390625 14.640625 -1 C 12.085938 -2.050781 9.875 -3.472656 8 -5.265625 C 6.132812 -7.054688 4.671875 -9.179688 3.609375 -11.640625 C 2.546875 -14.109375 2.015625 -16.757812 2.015625 -19.59375 C 2.015625 -22.425781 2.554688 -25.082031 3.640625 -27.5625 C 4.722656 -30.050781 6.195312 -32.191406 8.0625 -33.984375 C 9.925781 -35.773438 12.132812 -37.191406 14.6875 -38.234375 C 17.25 -39.285156 19.984375 -39.8125 22.890625 -39.8125 C 26.023438 -39.8125 29.066406 -39.144531 32.015625 -37.8125 C 34.972656 -36.488281 37.363281 -34.707031 39.1875 -32.46875 L 33.703125 -27.046875 C 32.316406 -28.753906 30.691406 -30.066406 28.828125 -30.984375 C 26.960938 -31.898438 24.984375 -32.359375 22.890625 -32.359375 C 21.140625 -32.359375 19.488281 -32.03125 17.9375 -31.375 C 16.394531 -30.726562 15.0625 -29.832031 13.9375 -28.6875 C 12.820312 -27.550781 11.945312 -26.207031 11.3125 -24.65625 C 10.675781 -23.113281 10.359375 -21.425781 10.359375 -19.59375 C 10.359375 -17.800781 10.679688 -16.128906 11.328125 -14.578125 C 11.984375 -13.035156 12.878906 -11.703125 14.015625 -10.578125 C 15.160156 -9.460938 16.503906 -8.578125 18.046875 -7.921875 C 19.597656 -7.265625 21.289062 -6.9375 23.125 -6.9375 Z M 23.125 -6.9375 "/></g></g></g><g fill="#f2f2f2" fill-opacity="1"><g transform="translate(279.169941, 197.639855)"><g><path d="M 3.53125 0 L 3.53125 -39.1875 L 33.640625 -39.1875 L 33.640625 -32.140625 L 11.640625 -32.140625 L 11.640625 -23.171875 L 26.140625 -23.171875 L 26.140625 -16.34375 L 11.640625 -16.34375 L 11.640625 -7.046875 L 33.875 -7.046875 L 33.875 0 Z M 3.53125 0 "/></g></g></g><g clip-path="url(#abcaa1926c)"><g clip-path="url(#7cc75bda00)"><path fill="#f2f2f2" d="M 51.328125 205.847656 L 323.671875 205.847656 L 323.671875 217.234375 L 51.328125 217.234375 Z M 51.328125 205.847656 " fill-opacity="1" fill-rule="nonzero"/></g></g></svg>