<svg xmlns="http://www.w3.org/2000/svg" xmlns:xlink="http://www.w3.org/1999/xlink" width="500" zoomAndPan="magnify" viewBox="0 0 375 374.999991" height="500" preserveAspectRatio="xMidYMid meet" version="1.0"><defs><g/><clipPath id="8dcd778b0e"><path d="M 46.984375 205.597656 L 337.5 205.597656 L 337.5 217.746094 L 46.984375 217.746094 Z M 46.984375 205.597656 " clip-rule="nonzero"/></clipPath><clipPath id="0e1fe9f6ff"><path d="M 46.984375 205.597656 L 49.613281 217.742188 L 337.5 206.253906 L 337.335938 205.597656 Z M 46.984375 205.597656 " clip-rule="nonzero"/></clipPath></defs><g fill="#0658f6" fill-opacity="1"><g transform="translate(50.56184, 200.989864)"><g><path d="M 7.3125 -34.96875 C 6.039062 -34.96875 4.941406 -35.425781 4.015625 -36.34375 C 3.097656 -37.269531 2.640625 -38.375 2.640625 -39.65625 C 2.640625 -40.925781 3.097656 -42.019531 4.015625 -42.9375 C 4.941406 -43.863281 6.039062 -44.328125 7.3125 -44.328125 C 8.59375 -44.328125 9.691406 -43.863281 10.609375 -42.9375 C 11.535156 -42.019531 12 -40.925781 12 -39.65625 C 12 -38.375 11.535156 -37.269531 10.609375 -36.34375 C 9.691406 -35.425781 8.59375 -34.96875 7.3125 -34.96875 Z M 11.453125 -31.25 L 11.453125 0 L 3.234375 0 L 3.234375 -31.25 Z M 11.453125 -31.25 "/></g></g></g><g fill="#0658f6" fill-opacity="1"><g transform="translate(63.636513, 200.989864)"><g><path d="M 3.78125 0 L 3.78125 -41.984375 L 36.234375 -41.984375 L 36.234375 -34.4375 L 12.484375 -34.4375 L 12.484375 -24.53125 L 28.25 -24.53125 L 28.25 -17.21875 L 12.484375 -17.21875 L 12.484375 0 Z M 3.78125 0 "/></g></g></g><g fill="#0658f6" fill-opacity="1"><g transform="translate(100.401908, 200.989864)"><g><path d="M 3.78125 0 L 3.78125 -41.984375 L 12.484375 -41.984375 L 12.484375 0 Z M 3.78125 0 "/></g></g></g><g fill="#0658f6" fill-opacity="1"><g transform="translate(115.155922, 200.989864)"><g><path d="M 3.78125 -41.984375 L 12.0625 -41.984375 L 32.9375 -14.8125 L 32.9375 -41.984375 L 41.09375 -41.984375 L 41.09375 0 L 33.40625 0 L 12 -28.078125 L 12 0 L 3.78125 0 Z M 3.78125 -41.984375 "/></g></g></g><g fill="#0658f6" fill-opacity="1"><g transform="translate(158.518733, 200.989864)"><g><path d="M -0.234375 0 L 17.03125 -41.984375 L 27.109375 -41.984375 L 44.15625 0 L 34.734375 0 L 30.46875 -11.03125 L 13.140625 -11.03125 L 8.8125 0 Z M 15.828125 -18 L 27.828125 -18 L 21.890625 -33.46875 Z M 15.828125 -18 "/></g></g></g><g fill="#0658f6" fill-opacity="1"><g transform="translate(200.861939, 200.989864)"><g><path d="M 3.78125 -41.984375 L 12.0625 -41.984375 L 32.9375 -14.8125 L 32.9375 -41.984375 L 41.09375 -41.984375 L 41.09375 0 L 33.40625 0 L 12 -28.078125 L 12 0 L 3.78125 0 Z M 3.78125 -41.984375 "/></g></g></g><g fill="#0658f6" fill-opacity="1"><g transform="translate(244.224744, 200.989864)"><g><path d="M 24.78125 -7.4375 C 26.976562 -7.4375 29.035156 -7.894531 30.953125 -8.8125 C 32.867188 -9.738281 34.566406 -11.0625 36.046875 -12.78125 L 41.75 -7.140625 C 39.75 -4.773438 37.195312 -2.894531 34.09375 -1.5 C 31 -0.101562 27.8125 0.59375 24.53125 0.59375 C 21.375 0.59375 18.425781 0.0351562 15.6875 -1.078125 C 12.945312 -2.203125 10.578125 -3.722656 8.578125 -5.640625 C 6.578125 -7.554688 5.003906 -9.832031 3.859375 -12.46875 C 2.722656 -15.113281 2.15625 -17.957031 2.15625 -21 C 2.15625 -24.03125 2.734375 -26.875 3.890625 -29.53125 C 5.054688 -32.195312 6.640625 -34.488281 8.640625 -36.40625 C 10.640625 -38.332031 13.007812 -39.851562 15.75 -40.96875 C 18.488281 -42.09375 21.414062 -42.65625 24.53125 -42.65625 C 27.894531 -42.65625 31.15625 -41.941406 34.3125 -40.515625 C 37.46875 -39.097656 40.023438 -37.191406 41.984375 -34.796875 L 36.109375 -28.96875 C 34.628906 -30.8125 32.890625 -32.222656 30.890625 -33.203125 C 28.890625 -34.179688 26.769531 -34.671875 24.53125 -34.671875 C 22.65625 -34.671875 20.882812 -34.320312 19.21875 -33.625 C 17.5625 -32.925781 16.132812 -31.960938 14.9375 -30.734375 C 13.738281 -29.515625 12.796875 -28.078125 12.109375 -26.421875 C 11.429688 -24.765625 11.09375 -22.957031 11.09375 -21 C 11.09375 -19.070312 11.441406 -17.28125 12.140625 -15.625 C 12.847656 -13.96875 13.8125 -12.535156 15.03125 -11.328125 C 16.25 -10.128906 17.6875 -9.179688 19.34375 -8.484375 C 21 -7.785156 22.8125 -7.4375 24.78125 -7.4375 Z M 24.78125 -7.4375 "/></g></g></g><g fill="#0658f6" fill-opacity="1"><g transform="translate(285.728297, 200.989864)"><g><path d="M 3.78125 0 L 3.78125 -41.984375 L 36.046875 -41.984375 L 36.046875 -34.4375 L 12.484375 -34.4375 L 12.484375 -24.828125 L 28.015625 -24.828125 L 28.015625 -17.515625 L 12.484375 -17.515625 L 12.484375 -7.5625 L 36.296875 -7.5625 L 36.296875 0 Z M 3.78125 0 "/></g></g></g><g clip-path="url(#8dcd778b0e)"><g clip-path="url(#0e1fe9f6ff)"><path fill="#0658f6" d="M 46.984375 205.597656 L 337.5 205.597656 L 337.5 217.746094 L 46.984375 217.746094 Z M 46.984375 205.597656 " fill-opacity="1" fill-rule="nonzero"/></g></g></svg>