<svg id="visual" viewBox="0 0 1920 1080" width="1920" height="1080" xmlns="http://www.w3.org/2000/svg" xmlns:xlink="http://www.w3.org/1999/xlink" version="1.1"><rect x="0" y="0" width="1920" height="1080" fill="#001220"></rect><path d="M0 786L32 765.2C64 744.3 128 702.7 192 687.5C256 672.3 320 683.7 384 720.5C448 757.3 512 819.7 576 844.5C640 869.3 704 856.7 768 825.5C832 794.3 896 744.7 960 750.7C1024 756.7 1088 818.3 1152 826.8C1216 835.3 1280 790.7 1344 766.5C1408 742.3 1472 738.7 1536 756C1600 773.3 1664 811.7 1728 802.8C1792 794 1856 738 1888 710L1920 682L1920 1081L1888 1081C1856 1081 1792 1081 1728 1081C1664 1081 1600 1081 1536 1081C1472 1081 1408 1081 1344 1081C1280 1081 1216 1081 1152 1081C1088 1081 1024 1081 960 1081C896 1081 832 1081 768 1081C704 1081 640 1081 576 1081C512 1081 448 1081 384 1081C320 1081 256 1081 192 1081C128 1081 64 1081 32 1081L0 1081Z" fill="#899db0"></path><path d="M0 883L32 881.8C64 880.7 128 878.3 192 864.5C256 850.7 320 825.3 384 833.5C448 841.7 512 883.3 576 880.5C640 877.7 704 830.3 768 827C832 823.7 896 864.3 960 881C1024 897.7 1088 890.3 1152 886.5C1216 882.7 1280 882.3 1344 875.2C1408 868 1472 854 1536 839.8C1600 825.7 1664 811.3 1728 802.8C1792 794.3 1856 791.7 1888 790.3L1920 789L1920 1081L1888 1081C1856 1081 1792 1081 1728 1081C1664 1081 1600 1081 1536 1081C1472 1081 1408 1081 1344 1081C1280 1081 1216 1081 1152 1081C1088 1081 1024 1081 960 1081C896 1081 832 1081 768 1081C704 1081 640 1081 576 1081C512 1081 448 1081 384 1081C320 1081 256 1081 192 1081C128 1081 64 1081 32 1081L0 1081Z" fill="#49678f"></path><path d="M0 883L32 898.2C64 913.3 128 943.7 192 943.8C256 944 320 914 384 899.8C448 885.7 512 887.3 576 893.3C640 899.3 704 909.7 768 922.8C832 936 896 952 960 959.8C1024 967.7 1088 967.3 1152 967.5C1216 967.7 1280 968.3 1344 975.7C1408 983 1472 997 1536 992.7C1600 988.3 1664 965.7 1728 956.8C1792 948 1856 953 1888 955.5L1920 958L1920 1081L1888 1081C1856 1081 1792 1081 1728 1081C1664 1081 1600 1081 1536 1081C1472 1081 1408 1081 1344 1081C1280 1081 1216 1081 1152 1081C1088 1081 1024 1081 960 1081C896 1081 832 1081 768 1081C704 1081 640 1081 576 1081C512 1081 448 1081 384 1081C320 1081 256 1081 192 1081C128 1081 64 1081 32 1081L0 1081Z" fill="#0d336c"></path></svg>